<?xml version="1.0" encoding="UTF-8"?>
<svg xmlns="http://www.w3.org/2000/svg" viewBox="0 0 64 64">
  <defs>
    <linearGradient id="gold" x1="0%" y1="0%" x2="100%" y2="100%">
      <stop offset="0%" style="stop-color:#FFD700;stop-opacity:1" />
      <stop offset="100%" style="stop-color:#DAA520;stop-opacity:1" />
    </linearGradient>
    <linearGradient id="metal" x1="0%" y1="0%" x2="100%" y2="100%">
      <stop offset="0%" style="stop-color:#E8E8E8;stop-opacity:1" />
      <stop offset="100%" style="stop-color:#A0A0A0;stop-opacity:1" />
    </linearGradient>
  </defs>
  
  <!-- Robot head -->
  <rect x="12" y="8" width="40" height="36" rx="4" fill="url(#metal)" stroke="#444" stroke-width="1.5"/>
  
  <!-- Robot eyes -->
  <circle cx="24" cy="22" r="6" fill="url(#gold)" stroke="#444" stroke-width="1"/>
  <circle cx="40" cy="22" r="6" fill="url(#gold)" stroke="#444" stroke-width="1"/>
  <circle cx="24" cy="22" r="2" fill="#333"/>
  <circle cx="40" cy="22" r="2" fill="#333"/>
  
  <!-- Robot mouth/grill -->
  <rect x="20" y="34" width="24" height="4" rx="2" fill="#333"/>
  <rect x="22" y="34" width="20" height="4" rx="2" fill="#222" stroke="#444" stroke-width="0.5"/>
  <line x1="24" y1="34" x2="24" y2="38" stroke="#444" stroke-width="0.5"/>
  <line x1="28" y1="34" x2="28" y2="38" stroke="#444" stroke-width="0.5"/>
  <line x1="32" y1="34" x2="32" y2="38" stroke="#444" stroke-width="0.5"/>
  <line x1="36" y1="34" x2="36" y2="38" stroke="#444" stroke-width="0.5"/>
  <line x1="40" y1="34" x2="40" y2="38" stroke="#444" stroke-width="0.5"/>
  
  <!-- Robot antennas -->
  <line x1="20" y1="8" x2="16" y2="2" stroke="#444" stroke-width="2"/>
  <circle cx="16" cy="2" r="2" fill="url(#gold)"/>
  
  <line x1="44" y1="8" x2="48" y2="2" stroke="#444" stroke-width="2"/>
  <circle cx="48" cy="2" r="2" fill="url(#gold)"/>
  
  <!-- Robot neck -->
  <rect x="24" y="44" width="16" height="4" fill="#555"/>
  
  <!-- Robot ears/side pieces -->
  <rect x="8" y="16" width="4" height="20" rx="2" fill="url(#metal)" stroke="#444" stroke-width="1"/>
  <rect x="52" y="16" width="4" height="20" rx="2" fill="url(#metal)" stroke="#444" stroke-width="1"/>
  
  <!-- Robot body hint -->
  <rect x="18" y="48" width="28" height="10" rx="4" fill="url(#metal)" stroke="#444" stroke-width="1.5"/>
  
  <!-- Highlight glossy effect -->
  <rect x="14" y="10" width="36" height="10" rx="2" fill="rgba(255,255,255,0.2)"/>
</svg>